<svg width="47" height="41" viewBox="0 0 47 41" fill="none" xmlns="http://www.w3.org/2000/svg">
	<path
		d="M30.2158 15.2623C30.443 15.9826 31.2184 16.3846 31.9474 16.1604C32.6769 15.9361 33.0841 15.1704 32.857 14.4507C32.6298 13.7309 31.8544 13.3283 31.1249 13.5526C30.3959 13.7768 29.9887 14.5425 30.2158 15.2623ZM28.2966 2.70422C28.8312 2.53995 29.1295 1.97851 28.9631 1.45111C28.7968 0.923176 28.2287 0.628681 27.694 0.792952C27.1593 0.957223 26.8611 1.51866 27.0274 2.04606C27.1938 2.57399 27.7619 2.86849 28.2966 2.70422ZM27.3263 7.10225C25.87 7.55022 25.0567 9.07837 25.5099 10.5168C25.9636 11.9547 27.5118 12.7577 28.9681 12.3103C30.4244 11.8623 31.2376 10.3336 30.7845 8.89572C30.3308 7.45781 28.7825 6.65483 27.3263 7.10225ZM23.7531 12.0109C24.1838 11.8785 24.4246 11.4257 24.2906 11.0004C24.1565 10.5752 23.6979 10.3374 23.2672 10.4698C22.8359 10.6022 22.5957 11.0545 22.7297 11.4803C22.8638 11.9061 23.3224 12.1433 23.7531 12.0109ZM24.5248 6.9958C25.4267 7.02174 26.1786 6.32089 26.2049 5.43037C26.2312 4.53985 25.5214 3.79737 24.6195 3.77144C23.7176 3.7455 22.9656 4.44635 22.9393 5.33687C22.9131 6.22739 23.6229 6.96987 24.5248 6.9958ZM19.6689 9.12646C20.7081 8.80656 21.2888 7.71556 20.9653 6.68941C20.6414 5.66271 19.537 5.08993 18.4972 5.40929C17.4573 5.72864 16.8772 6.81964 17.2007 7.84634C17.5241 8.87249 18.629 9.44635 19.6689 9.12646ZM20.5883 1.17175C20.9161 1.18093 21.1892 0.926421 21.1985 0.602743C21.2083 0.279064 20.95 0.00942726 20.6227 0.000241057C20.2955 -0.00894515 20.0218 0.245555 20.0125 0.569234C20.0032 0.892372 20.261 1.16256 20.5883 1.17175ZM20.5155 12.9992C20.0076 13.1554 19.7236 13.6882 19.8817 14.1902C20.0399 14.6917 20.5801 14.9721 21.0879 14.816C21.5958 14.6598 21.8798 14.1265 21.7217 13.625C21.5635 13.1235 21.0233 12.8425 20.5155 12.9992ZM19.5014 22.0298C18.8288 22.2368 18.4528 22.943 18.6619 23.6077C18.8715 24.2718 19.5868 24.643 20.2599 24.4361C20.9325 24.2291 21.3085 23.5229 21.0989 22.8587C20.8893 22.1941 20.174 21.8234 19.5014 22.0298ZM30.9672 27.3346C31.6743 27.1174 32.0689 26.3749 31.8489 25.6768C31.6289 24.9781 30.8769 24.5879 30.1693 24.8057C29.4617 25.0229 29.0671 25.7654 29.2871 26.4641C29.5077 27.1622 30.2601 27.5524 30.9672 27.3346ZM28.5264 20.3871C29.1996 20.1802 29.575 19.4739 29.3659 18.8098C29.1563 18.1451 28.441 17.7745 27.7684 17.9814C27.0953 18.1884 26.7199 18.8946 26.9295 19.5587C27.1391 20.2234 27.8538 20.5941 28.5264 20.3871ZM32.672 33.3807C32.7864 33.7428 33.176 33.9449 33.5427 33.8319C33.9094 33.719 34.114 33.3343 34.0002 32.9722C33.8858 32.6102 33.4962 32.4081 33.1295 32.5205C32.7623 32.6334 32.5582 33.0182 32.672 33.3807ZM32.296 28.7212C31.8111 28.8703 31.5413 29.3783 31.6918 29.857C31.8429 30.3352 32.3573 30.6022 32.8422 30.453C33.3265 30.3044 33.5969 29.796 33.4464 29.3172C33.2959 28.839 32.7803 28.5726 32.296 28.7212ZM33.8842 10.4104C32.9183 10.7076 32.3787 11.7213 32.6796 12.675C32.9801 13.6288 34.0073 14.1616 34.9733 13.8644C35.9392 13.5677 36.4782 12.5535 36.1778 11.5997C35.8768 10.646 34.8501 10.1137 33.8842 10.4104ZM34.1961 7.40324C35.2764 7.07092 35.8801 5.93668 35.5435 4.87C35.2075 3.80278 34.0582 3.20731 32.9779 3.53963C31.8976 3.87142 31.294 5.00618 31.63 6.07286C31.9666 7.14008 33.1153 7.73556 34.1961 7.40324ZM25.6035 14.5814C25.0195 14.7608 24.6933 15.3736 24.875 15.9502C25.0567 16.5268 25.6779 16.8488 26.2618 16.6694C26.8458 16.49 27.1719 15.8767 26.9897 15.3001C26.808 14.7236 26.1874 14.402 25.6035 14.5814ZM29.1306 31.9888C29.8037 31.7818 30.1792 31.0755 29.9696 30.4109C29.76 29.7462 29.0447 29.3756 28.3721 29.5825C27.6989 29.7895 27.3235 30.4957 27.5331 31.1598C27.7427 31.8239 28.458 32.1958 29.1306 31.9888ZM33.1361 9.04324C33.0217 8.68066 32.632 8.47857 32.2654 8.5915C31.8981 8.70444 31.694 9.08917 31.8078 9.45176C31.9222 9.8138 32.3119 10.0159 32.6786 9.9035C33.0452 9.79056 33.2499 9.40529 33.1361 9.04324ZM35.584 20.3601C35.173 19.0573 33.7704 18.33 32.4503 18.7352C31.1309 19.141 30.3943 20.526 30.8047 21.8288C31.2152 23.1316 32.6184 23.8595 33.9378 23.4537C35.2573 23.0479 35.9944 21.6629 35.584 20.3601ZM14.6975 3.94491C15.2053 3.78874 15.4894 3.2554 15.3307 2.75394C15.1725 2.25248 14.6323 1.97203 14.1245 2.12819C13.6166 2.28436 13.3326 2.8177 13.4907 3.31916C13.6489 3.82062 14.1896 4.10108 14.6975 3.94491ZM17.0726 13.0063C16.9549 12.6329 16.5533 12.4248 16.1751 12.541C15.7969 12.6572 15.5862 13.0538 15.7039 13.4272C15.8216 13.8006 16.2232 14.0092 16.6014 13.8925C16.9796 13.7763 17.1903 13.3797 17.0726 13.0063ZM24.8936 21.5397C23.9277 21.8369 23.3881 22.8506 23.6886 23.8044C23.989 24.7581 25.0162 25.2909 25.9822 24.9937C26.9481 24.6971 27.4877 23.6828 27.1867 22.7291C26.8862 21.7753 25.8595 21.2425 24.8936 21.5397ZM31.04 34.5944C30.7396 33.6407 29.7124 33.1079 28.7464 33.4051C27.7805 33.7023 27.2409 34.716 27.5419 35.6697C27.8429 36.6235 28.8696 37.1563 29.8355 36.8591C30.8014 36.5624 31.341 35.5481 31.04 34.5944ZM25.951 36.831C25.5837 36.9439 25.3796 37.3286 25.4934 37.6912C25.6078 38.0533 25.9975 38.2554 26.3642 38.1424C26.7308 38.0295 26.9355 37.6448 26.8217 37.2827C26.7073 36.9207 26.3176 36.7186 25.951 36.831ZM25.5848 33.7628C25.4267 33.2613 24.8865 32.9809 24.3787 33.137C23.8708 33.2932 23.5868 33.826 23.7449 34.328C23.9031 34.8295 24.4427 35.1099 24.9511 34.9537C25.459 34.7976 25.743 34.2642 25.5848 33.7628ZM45.5306 26.1777C45.5306 26.1777 42.3997 21.256 42.3904 21.2414C42.0035 20.6789 41.9597 20.0343 42.559 19.6068C42.9005 19.3637 43.1894 19.0394 43.2704 18.6196C43.3136 18.3943 43.2868 18.2527 43.2507 18.0371C43.2485 18.0236 43.2463 18.0117 43.2425 17.9982C42.9098 16.6835 42.5978 15.3639 42.2284 14.0584C42.0095 13.2835 41.7736 12.5118 41.4962 11.7548C41.263 11.1199 41.002 10.4784 40.6567 9.89431C40.2194 9.15401 39.6989 8.46289 39.1144 7.82958C38.571 7.24113 37.9187 6.53541 37.2149 6.13068C36.927 5.96533 36.7825 6.21227 36.91 6.41437C36.9905 6.5419 37.066 6.60944 36.9046 6.68293C36.7278 6.76344 36.5724 6.87368 36.4503 7.02498C36.2084 7.32435 36.1307 7.73069 36.2457 8.09652C36.4049 8.60176 36.8816 8.91734 37.3916 8.90815C36.9139 9.29505 36.6025 9.87541 36.6025 10.533C36.6025 11.537 37.3139 12.3735 38.2651 12.587C37.8311 12.9209 37.6248 13.4931 37.7906 14.0432C37.6489 14.0589 37.5066 14.0881 37.3659 14.1319C36.6517 14.3512 36.1242 14.8851 35.8916 15.5309C35.6234 15.2953 35.2409 15.2002 34.8737 15.3131C34.316 15.4844 34.0046 16.0696 34.1781 16.6208C34.3516 17.1714 34.9443 17.4789 35.5019 17.307C35.6568 17.2595 35.7925 17.1801 35.9047 17.0779C36.2298 17.9371 37.0392 18.4877 37.9263 18.5342C37.4639 18.8633 37.1596 19.3966 37.1596 20.0024C37.1596 20.4828 37.3604 20.908 37.6702 21.2312C37.6976 21.2906 37.7178 21.3549 37.7512 21.41C37.3851 21.5619 37.0792 21.7975 36.8312 22.0785C36.2692 22.6475 35.9178 23.4186 35.9178 24.2767C35.9178 24.3561 35.9359 24.4301 35.9414 24.5079C35.8078 24.4825 35.6699 24.4669 35.5287 24.4669C34.3384 24.4669 33.3736 25.4195 33.3736 26.5948C33.3736 27.4967 33.9438 28.2629 34.7456 28.5726C34.4068 29.2199 34.3007 29.9862 34.5371 30.7367C34.8791 31.8218 35.8139 32.5605 36.8799 32.7199C36.7256 33.0084 36.6298 33.3326 36.6298 33.6817C36.6298 33.9297 36.6873 34.1605 36.7694 34.3799C36.2572 34.4372 35.8018 34.7835 35.6387 35.3006C35.4187 35.9993 35.8133 36.7418 36.5209 36.959C36.6714 37.0055 36.8236 37.0185 36.973 37.0125C36.9604 37.2503 36.9839 37.4935 37.06 37.7345C37.1831 38.1257 37.413 38.4548 37.708 38.7012C37.2105 38.9805 36.9588 39.5733 37.1361 40.1353C37.3178 40.7124 37.8908 41.0626 38.4774 40.9907C38.9021 40.9934 39.758 40.9961 39.891 40.9988C40.8449 41.0199 41.7162 40.7275 42.1091 39.7976C42.3795 39.1562 42.2892 38.2581 42.2394 37.5442C42.2104 37.1303 42.1917 36.6959 42.2941 36.2901C42.4916 35.5055 43.1254 34.9883 43.7881 34.5749C43.8653 34.5269 43.92 34.468 43.9622 34.388C44.0295 34.2605 44.0722 34.0859 44.0809 33.9422C44.0924 33.7574 44.059 33.5537 43.9457 33.4024C43.7876 33.1922 43.5665 33.1776 43.3136 33.1095C43.6037 32.9528 43.8987 32.8425 44.0481 32.5475C44.093 32.4583 44.1214 32.3562 44.1291 32.2379C44.1406 32.0552 44.0979 31.8326 44.0218 31.6656C43.7192 31.0004 43.3684 30.1326 43.2425 29.4155L43.2294 29.3415L45.0934 28.7206C45.3703 28.6288 45.6352 28.4775 45.813 28.244C46.2875 27.6199 45.8979 26.7526 45.5312 26.1761L45.5306 26.1777ZM30.9229 38.9573C30.415 39.1135 30.1316 39.6463 30.2892 40.1483C30.4473 40.6497 30.9875 40.9302 31.4954 40.7735C32.0032 40.6173 32.2867 40.084 32.1291 39.5825C31.9709 39.0805 31.4308 38.8011 30.9229 38.9573ZM35.2195 38.6423C34.8529 38.7552 34.6482 39.1399 34.762 39.5025C34.8764 39.8646 35.266 40.0667 35.6333 39.9543C35.9999 39.8413 36.2046 39.4566 36.0902 39.0946C35.9759 38.732 35.5862 38.5294 35.2195 38.6423ZM25.1021 28.4326C24.62 26.9028 22.9733 26.0485 21.4234 26.5251C19.8741 27.0012 19.0089 28.6277 19.491 30.1575C19.9737 31.6872 21.6204 32.5416 23.1703 32.0649C24.7196 31.5889 25.5848 29.9624 25.1021 28.4326ZM33.129 35.5276C32.5341 35.7103 32.2024 36.3344 32.3874 36.9217C32.5724 37.5091 33.205 37.8366 33.7994 37.6539C34.3942 37.4708 34.7264 36.8466 34.5409 36.2598C34.3559 35.6724 33.7233 35.3444 33.129 35.5276ZM0.677506 13.9481C0.169639 14.1043 -0.114394 14.6376 0.0437674 15.1391C0.201928 15.6411 0.742083 15.921 1.24995 15.7648C1.75782 15.6087 2.04185 15.0753 1.88369 14.5733C1.72553 14.0719 1.18537 13.792 0.677506 13.9481ZM6.03856 22.3951C5.36542 22.6021 4.98999 23.3083 5.1996 23.9724C5.4092 24.6366 6.12448 25.0078 6.79708 24.8008C7.47022 24.5939 7.84564 23.8876 7.63659 23.2235C7.42698 22.5594 6.7117 22.1882 6.03856 22.3951ZM6.50046 8.61798C5.99204 8.77415 5.7091 9.30693 5.86726 9.80893C6.02542 10.3104 6.56558 10.5908 7.07345 10.4347C7.58131 10.2785 7.86535 9.74517 7.70718 9.24371C7.54902 8.74171 7.00833 8.46127 6.50046 8.61798ZM8.43779 5.04562C8.32341 4.68304 7.93375 4.48093 7.56708 4.59387C7.19987 4.70681 6.99573 5.09156 7.10957 5.45414C7.22395 5.81619 7.6136 6.01827 7.98082 5.90588C8.34749 5.79294 8.55217 5.40713 8.43779 5.04562ZM19.4915 34.274C18.5256 34.5706 17.986 35.5849 18.287 36.5386C18.5875 37.4924 19.6147 38.0252 20.5806 37.728C21.5465 37.4313 22.0861 36.417 21.7852 35.4633C21.4842 34.5096 20.4575 33.9768 19.4915 34.274ZM14.6252 9.91863C15.2978 9.71167 15.6738 9.00541 15.4642 8.34131C15.2551 7.67666 14.5393 7.30596 13.8667 7.51292C13.1941 7.71988 12.8181 8.42615 13.0277 9.09026C13.2373 9.75437 13.952 10.1256 14.6252 9.91863ZM12.4947 16.0134C12.1439 14.9019 10.9476 14.2815 9.82129 14.6274C8.69555 14.9732 8.06729 16.155 8.41754 17.2671C8.76834 18.3786 9.96467 18.9995 11.091 18.6531C12.2167 18.3073 12.845 17.125 12.4947 16.0134ZM14.7839 30.847C14.1108 31.0539 13.7354 31.7602 13.945 32.4243C14.1546 33.0884 14.8699 33.4596 15.5424 33.2532C16.2156 33.0463 16.591 32.34 16.382 31.6754C16.1724 31.0112 15.4571 30.64 14.7839 30.847ZM19.0816 19.8138C20.0476 19.5166 20.5866 18.5029 20.2862 17.5491C19.9852 16.5954 18.9585 16.0626 17.992 16.3598C17.0261 16.6565 16.4865 17.6707 16.7875 18.6245C17.0885 19.5782 18.1152 20.1105 19.0816 19.8138ZM14.5689 27.3378C15.5348 27.0406 16.0744 26.0269 15.7734 25.0732C15.4724 24.1194 14.4457 23.5866 13.4798 23.8838C12.5133 24.1805 11.9742 25.1948 12.2747 26.1485C12.5751 27.1022 13.6024 27.635 14.5689 27.3378Z"
		fill="url(#paint0_linear_401_98)" />
	<defs>
		<linearGradient id="paint0_linear_401_98" x1="8.41426" y1="32.9106" x2="43.2248"
			y2="10.0158" gradientUnits="userSpaceOnUse">
			<stop stop-color="#FAA933" />
			<stop offset="1" stop-color="#ED2185" />
		</linearGradient>
	</defs>
</svg>